HIERARCHY
ROOT Hips
{
 OFFSET 0.000000 0.000000 0.000000
 CHANNELS 6 Xposition Yposition Zposition Yrotation Xrotation Zrotation
 JOINT Chest
 {
  OFFSET 0.000000 9.585900 0.002600
  CHANNELS 3 Yrotation Xrotation Zrotation
  JOINT Chest2
  {
   OFFSET 0.000000 9.601200 -0.005300
   CHANNELS 3 Yrotation Xrotation Zrotation
   JOINT Chest3
   {
    OFFSET 0.000000 9.561800 0.000000
    CHANNELS 3 Yrotation Xrotation Zrotation
    JOINT Chest4
    {
     OFFSET 0.000000 9.552100 0.000000
     CHANNELS 3 Yrotation Xrotation Zrotation
     JOINT Neck
     {
      OFFSET 0.000000 14.453000 0.000000
      CHANNELS 3 Yrotation Xrotation Zrotation
      JOINT Head
      {
       OFFSET 0.000000 8.936500 -0.011300
       CHANNELS 3 Yrotation Xrotation Zrotation
       End Site
       {
        OFFSET 0.000000 17.073600 -0.006000
       }
      }
     }
     JOINT RightCollar
     {
      OFFSET -2.921100 9.558500 0.000000
      CHANNELS 3 Yrotation Xrotation Zrotation
      JOINT RightShoulder
      {
       OFFSET -13.519700 0.000000 0.000000
       CHANNELS 3 Yrotation Xrotation Zrotation
       JOINT RightElbow
       {
        OFFSET 0.000000 -29.696600 0.000000
        CHANNELS 3 Yrotation Xrotation Zrotation
        JOINT RightWrist
        {
         OFFSET 0.000000 -24.004700 0.000000
         CHANNELS 3 Yrotation Xrotation Zrotation
         End Site
         {
          OFFSET 0.000000 -17.728500 0.000000
         }
        }
       }
      }
     }
     JOINT LeftCollar
     {
      OFFSET 2.921100 9.558500 0.000000
      CHANNELS 3 Yrotation Xrotation Zrotation
      JOINT LeftShoulder
      {
       OFFSET 13.519700 0.000000 0.000000
       CHANNELS 3 Yrotation Xrotation Zrotation
       JOINT LeftElbow
       {
        OFFSET 0.000000 -29.696600 0.000000
        CHANNELS 3 Yrotation Xrotation Zrotation
        JOINT LeftWrist
        {
         OFFSET 0.000000 -24.004700 0.000000
         CHANNELS 3 Yrotation Xrotation Zrotation
         End Site
         {
          OFFSET 0.000000 -17.728500 0.000000
         }
        }
       }
      }
     }
    }
   }
  }
 }
 JOINT RightHip
 {
  OFFSET -7.771700 -0.012900 -0.001300
  CHANNELS 3 Yrotation Xrotation Zrotation
  JOINT RightKnee
  {
   OFFSET 0.000000 -40.869800 0.001200
   CHANNELS 3 Yrotation Xrotation Zrotation
   JOINT RightAnkle
   {
    OFFSET 0.000000 -39.717900 0.002100
    CHANNELS 3 Yrotation Xrotation Zrotation
    JOINT RightToe
    {
     OFFSET 0.000000 -4.965400 11.033500
     CHANNELS 3 Yrotation Xrotation Zrotation
     End Site
     {
      OFFSET 0.000000 -1.423100 5.872300
     }
    }
   }
  }
 }
 JOINT LeftHip
 {
  OFFSET 7.771700 -0.012900 -0.001300
  CHANNELS 3 Yrotation Xrotation Zrotation
  JOINT LeftKnee
  {
   OFFSET 0.000000 -40.869800 0.001200
   CHANNELS 3 Yrotation Xrotation Zrotation
   JOINT LeftAnkle
   {
    OFFSET 0.000000 -39.717900 0.002100
    CHANNELS 3 Yrotation Xrotation Zrotation
    JOINT LeftToe
    {
     OFFSET 0.000000 -4.965400 11.033500
     CHANNELS 3 Yrotation Xrotation Zrotation
     End Site
     {
      OFFSET 0.000000 -1.423100 5.872300
     }
    }
   }
  }
 }
}
MOTION
Frames: 16
Frame Time: 0.008333
-17.056916 54.348605 27.364366 -176.554010 -32.075659 -10.680192 0.048094 14.224514 6.249593 -0.205066 8.141955 2.418977 -0.198419 10.169800 3.018319 -0.210064 8.157909 2.436761 3.050367 20.625285 0.035140 3.270114 -3.780701 -0.666797 0.951330 5.826062 -2.218448 -17.781660 -8.695741 6.054730 21.967517 -82.428251 -5.455328 10.783318 -8.281186 -17.606867 -9.220888 4.479226 -3.609419 4.429579 -3.707620 -3.297156 -90.163315 -71.564552 98.291472 14.007927 -14.033584 -2.648167 -18.144886 -33.692150 -0.160724 16.675505 86.757317 11.615867 2.054103 -17.833420 4.398473 -0.044820 0.378354 0.019883 -14.732352 -45.935863 13.690235 168.344708 79.341044 162.889390 -1.407942 -15.763069 2.568119 -1.304562 -3.075298 -0.592294
-17.045505 54.363742 27.360854 -176.539494 -32.052665 -10.648303 0.017237 14.215392 6.215224 -0.202449 8.134684 2.413943 -0.204007 10.182094 3.029646 -0.206100 8.148780 2.430002 3.038211 20.628455 0.034556 3.262567 -3.787504 -0.673009 0.966424 5.828259 -2.208838 -17.797386 -8.725699 6.045202 21.477359 -82.437620 -4.933093 10.782855 -8.289615 -17.617773 -9.227554 4.484419 -3.613912 4.405377 -3.763506 -3.314280 -90.079098 -71.523029 98.217221 13.999484 -14.078557 -2.568190 -18.128008 -33.772874 -0.182635 17.251018 86.849030 12.202999 2.029627 -17.898443 4.382652 -0.016712 0.374256 0.009562 -14.718493 -45.969641 13.654867 168.412258 79.327508 162.959507 -1.441004 -15.824051 2.561686 -1.275430 -3.023682 -0.580595
-17.031337 54.377966 27.359183 -176.562245 -32.034796 -10.618888 0.025858 14.202207 6.202416 -0.203688 8.136694 2.418076 -0.203009 10.183102 3.045720 -0.207910 8.141965 2.411629 3.031898 20.628280 0.028183 3.235014 -3.773115 -0.662669 0.971307 5.831105 -2.195362 -17.807656 -8.754432 6.029676 20.995580 -82.448558 -4.421330 10.770261 -8.307521 -17.626440 -9.239872 4.483914 -3.616385 4.348539 -3.843922 -3.339526 -89.881025 -71.471716 98.048846 13.998488 -14.102368 -2.491176 -18.084285 -33.847410 -0.184763 17.791270 86.927735 12.742457 2.112481 -17.955428 4.339118 -0.055838 0.379263 0.022960 -14.715934 -45.992599 13.667819 168.525428 79.320129 163.058696 -1.452940 -15.873551 2.558548 -1.259649 -2.979866 -0.572795
-17.019254 54.392564 27.356612 -176.569479 -32.031031 -10.594927 0.023125 14.201687 6.190154 -0.204378 8.140100 2.426704 -0.202216 10.174585 3.036987 -0.208734 8.145042 2.415552 3.017222 20.645352 0.026193 3.219989 -3.754037 -0.661250 0.973816 5.834746 -2.188792 -17.811412 -8.773342 6.014349 20.622366 -82.469303 -4.025293 10.756389 -8.323329 -17.636214 -9.269794 4.481425 -3.620132 4.351682 -3.873420 -3.356348 -90.065082 -71.401988 98.198440 14.011467 -14.094114 -2.360850 -18.066474 -33.905577 -0.199015 18.464251 87.003723 13.423849 2.148761 -18.003063 4.307953 -0.077457 0.384537 0.021946 -14.703907 -46.004973 13.653632 168.603794 79.311756 163.135008 -1.454465 -15.912641 2.553003 -1.252018 -2.945769 -0.567650
-17.009400 54.406739 27.354843 -176.572001 -32.029461 -10.571772 0.014537 14.199588 6.177921 -0.201408 8.140707 2.417917 -0.202067 10.173469 3.037560 -0.205639 8.123901 2.442465 2.999359 20.726873 0.030901 3.207073 -3.748683 -0.679762 0.971277 5.862044 -2.195941 -17.811686 -8.793038 5.996823 20.455408 -82.488247 -3.839843 10.746556 -8.333880 -17.647036 -9.282395 4.498036 -3.652154 4.331078 -3.905163 -3.363407 -90.124015 -71.386396 98.236746 13.997508 -14.106380 -2.272521 -18.058568 -33.959942 -0.210892 19.192362 87.077072 14.188844 2.046522 -18.044714 4.286239 -0.033874 0.394844 0.021303 -14.697355 -46.015002 13.637135 168.668413 79.304232 163.193580 -1.457935 -15.946416 2.548772 -1.244476 -2.914865 -0.563114
-17.001342 54.420981 27.353507 -176.571549 -32.031474 -10.552634 0.004518 14.195331 6.163421 -0.201759 8.143189 2.423037 -0.202319 10.169047 3.039191 -0.211029 8.114072 2.438501 2.998840 20.763468 0.029504 3.199474 -3.603110 -0.640777 0.978943 5.885418 -2.185221 -17.801501 -8.824307 5.980670 20.409496 -82.481650 -3.798176 10.746007 -8.347068 -17.650705 -9.292639 4.514522 -3.661394 4.317986 -3.941987 -3.375109 -90.217410 -71.387236 98.303613 13.995665 -14.088698 -2.227181 -18.061563 -34.005602 -0.212873 19.627711 87.147927 14.643225 1.970600 -18.085790 4.271448 -0.014823 0.393199 0.009363 -14.695222 -46.021110 13.623287 168.712511 79.295817 163.228379 -1.464529 -15.974140 2.548408 -1.239077 -2.889499 -0.557157
-16.994329 54.435599 27.352442 -176.570666 -32.037016 -10.540807 -0.003318 14.192228 6.153809 -0.209185 8.127721 2.429722 -0.201253 10.177954 3.035603 -0.210307 8.119810 2.431943 3.002063 20.824535 0.049349 3.202580 -3.515061 -0.627847 0.982923 5.908166 -2.150287 -17.749085 -8.895011 5.946248 20.656778 -82.469464 -4.076192 10.751961 -8.343350 -17.654185 -9.301826 4.526356 -3.663916 4.320945 -3.958100 -3.381108 -90.368419 -71.402750 98.413687 14.000646 -14.057685 -2.226566 -18.073369 -34.040876 -0.228096 20.462660 87.200242 15.475552 2.041846 -18.132745 4.229337 -0.058109 0.406248 0.007224 -14.687495 -46.023629 13.609224 168.747248 79.287450 163.261137 -1.470538 -16.000208 2.547478 -1.231558 -2.866848 -0.554026
-16.988701 54.450554 27.351602 -176.570630 -32.044776 -10.532331 -0.009605 14.193526 6.147291 -0.207800 8.128551 2.428103 -0.205180 10.165473 3.036929 -0.209367 8.127546 2.429273 3.009701 20.894173 0.072852 3.209868 -3.450899 -0.622188 0.986995 5.933104 -2.121951 -17.713744 -8.957787 5.918532 21.141656 -82.461746 -4.578631 10.767247 -8.345676 -17.646910 -9.313865 4.539992 -3.664548 4.328619 -3.974536 -3.387088 -90.526071 -71.417174 98.523795 14.008304 -14.016069 -2.237305 -18.088153 -34.071440 -0.234116 21.196427 87.250144 16.207288 2.082754 -18.170193 4.196520 -0.030694 0.415354 0.003284 -14.692841 -46.022996 13.602330 168.769038 79.277700 163.274262 -1.468227 -16.018694 2.546430 -1.229980 -2.851827 -0.553818
-16.984754 54.465427 27.351489 -176.569481 -32.049334 -10.524048 -0.017529 14.195276 6.141202 -0.206617 8.127033 2.425935 -0.209658 10.156824 3.041257 -0.218779 8.122304 2.438706 3.020439 20.955907 0.069613 3.221605 -3.358717 -0.606349 0.998344 5.962989 -2.121517 -17.694592 -8.999089 5.899201 21.663232 -82.464546 -5.109221 10.781985 -8.342419 -17.632080 -9.320382 4.566068 -3.680770 4.328958 -4.042453 -3.389906 -90.439159 -71.428861 98.420807 14.059643 -14.005554 -2.333969 -18.105549 -34.102495 -0.235277 21.724501 87.298100 16.729207 2.118739 -18.205175 4.169567 -0.052344 0.417047 -0.002175 -14.692930 -46.023397 13.595601 168.809544 79.272698 163.307442 -1.479539 -16.041310 2.550034 -1.217357 -2.829323 -0.547704
-16.981126 54.480906 27.351365 -176.566700 -32.055561 -10.521933 -0.022224 14.201004 6.139483 -0.211660 8.125123 2.428457 -0.222370 10.157448 3.051626 -0.214289 8.123578 2.429503 3.027657 20.973909 0.062202 3.239217 -3.230429 -0.577177 1.007294 5.969210 -2.127032 -17.688618 -9.013324 5.892446 22.259416 -82.484957 -5.703252 10.795189 -8.335715 -17.614907 -9.320250 4.576729 -3.691206 4.332985 -4.082812 -3.386390 -90.440285 -71.443234 98.407321 14.065907 -14.005696 -2.390506 -18.127456 -34.126938 -0.235676 22.397744 87.339632 17.404402 2.135973 -18.236303 4.138933 0.007868 0.426556 -0.003844 -14.698125 -46.023681 13.591058 168.799276 79.262556 163.291311 -1.481212 -16.052907 2.546797 -1.216766 -2.818981 -0.542418
-16.978601 54.496771 27.351284 -176.561041 -32.062669 -10.518700 -0.029704 14.207999 6.135791 -0.216894 8.125157 2.432328 -0.226251 10.163054 3.051454 -0.209187 8.119945 2.422317 3.045898 21.096227 0.104211 3.250231 -3.201544 -0.586730 0.998853 5.992033 -2.099059 -17.654548 -9.081352 5.858427 22.613814 -82.485205 -6.070792 10.807130 -8.330196 -17.602797 -9.339327 4.588153 -3.689927 4.345375 -4.125713 -3.382697 -90.633813 -71.416219 98.523085 14.064807 -13.953562 -2.325263 -18.142900 -34.148013 -0.245747 23.200227 87.372938 18.206713 2.171626 -18.267337 4.107329 -0.040926 0.426676 -0.007199 -14.702222 -46.024413 13.578967 168.774621 79.253222 163.261130 -1.478788 -16.056806 2.546290 -1.219234 -2.815158 -0.541443
-16.974376 54.513679 27.351070 -176.565548 -32.075576 -10.521565 -0.029181 14.221728 6.144800 -0.218744 8.127416 2.433324 -0.228935 10.166016 3.052371 -0.210278 8.122140 2.423857 3.066817 21.181824 0.124446 3.266023 -3.141690 -0.582498 0.997954 6.032548 -2.055098 -17.630304 -9.175112 5.807842 22.682011 -82.474734 -6.146275 10.827089 -8.342491 -17.593677 -9.348626 4.589747 -3.700767 4.351099 -4.159885 -3.375073 -90.704982 -71.359888 98.564381 14.109972 -13.916853 -2.286435 -18.148225 -34.157073 -0.233695 23.657106 87.405388 18.665998 2.163931 -18.293467 4.094108 -0.040401 0.432524 -0.009089 -14.704081 -46.021115 13.575559 168.725278 79.237356 163.210534 -1.462309 -16.049334 2.546178 -1.235471 -2.825783 -0.546764
-16.969956 54.531072 27.351170 -176.574904 -32.091201 -10.521486 -0.027827 14.236404 6.150966 -0.223114 8.131707 2.438325 -0.226041 10.168812 3.052655 -0.212304 8.124060 2.419005 3.089149 21.247063 0.144352 3.285464 -3.066577 -0.573271 1.006397 6.045602 -2.040552 -17.626555 -9.222849 5.788491 22.768239 -82.469993 -6.230901 10.814173 -8.354635 -17.580263 -9.357064 4.599634 -3.705002 4.336754 -4.205773 -3.363713 -90.691910 -71.296477 98.551930 14.083010 -14.003846 -2.205224 -18.142866 -34.162915 -0.216982 24.297375 87.432133 19.324438 2.057738 -18.313388 4.097018 0.002768 0.439901 -0.011782 -14.696268 -46.011237 13.575842 168.703781 79.227963 163.185342 -1.458966 -16.050478 2.549770 -1.241532 -2.827809 -0.548361
-16.965225 54.549348 27.351029 -176.578986 -32.113578 -10.523042 -0.025808 14.258289 6.160230 -0.221701 8.133438 2.435878 -0.230275 10.172027 3.056990 -0.215588 8.129376 2.425007 3.107963 21.304060 0.154695 3.306533 -2.996932 -0.565459 1.013132 6.054765 -2.038130 -17.626374 -9.284130 5.767977 22.732551 -82.460918 -6.184327 10.770417 -8.353637 -17.567695 -9.368909 4.606649 -3.714698 4.308752 -4.254499 -3.352264 -90.638551 -71.232851 98.518973 14.074782 -14.065234 -2.127652 -18.133308 -34.158590 -0.209833 24.807656 87.455735 19.845719 2.005091 -18.332574 4.095426 -0.028914 0.445366 -0.012623 -14.687601 -45.993077 13.570300 168.676652 79.220569 163.157294 -1.458885 -16.049828 2.551001 -1.244036 -2.830598 -0.549166
-16.959144 54.567295 27.352807 -176.586143 -32.130138 -10.526574 -0.021547 14.270793 6.173793 -0.224708 8.137586 2.437507 -0.226736 10.172943 3.049526 -0.224803 8.137637 2.437477 3.128012 21.348872 0.163252 3.329726 -2.935572 -0.558464 1.016437 6.064558 -2.038732 -17.613262 -9.328314 5.756639 22.517856 -82.465736 -5.963716 10.735317 -8.350489 -17.561078 -9.379856 4.626253 -3.723717 4.283758 -4.304925 -3.349704 -90.602213 -71.172838 98.500373 14.094234 -14.094996 -2.070226 -18.125679 -34.158361 -0.191508 24.976807 87.482841 20.012016 2.003241 -18.347348 4.092758 -0.098109 0.444467 -0.011895 -14.676029 -45.979534 13.566229 168.687728 79.219447 163.175682 -1.453358 -16.056133 2.546999 -1.241870 -2.824942 -0.548382
-16.953053 54.584636 27.356492 -176.596257 -32.141346 -10.524332 -0.033419 14.267556 6.181961 -0.215858 8.148681 2.434560 -0.230165 10.175916 3.049834 -0.244977 8.139704 2.449129 3.158506 21.390769 0.157715 3.351878 -2.887592 -0.552865 1.029911 6.087528 -2.052109 -17.595124 -9.364933 5.749349 22.150030 -82.480046 -5.594624 10.710155 -8.344096 -17.552758 -9.355171 4.627959 -3.750569 4.240323 -4.324693 -3.339861 -90.567756 -71.129513 98.482685 14.122814 -14.096138 -2.030498 -18.103551 -34.164694 -0.169045 24.852390 87.510418 19.872210 2.030845 -18.359334 4.096888 -0.104688 0.436632 -0.010303 -14.652010 -45.971746 13.557066 168.678602 79.220985 163.176974 -1.457772 -16.065386 2.541320 -1.238106 -2.812585 -0.542128
